<svg width="150" height="150" viewBox="0 0 150 150" fill="none" xmlns="http://www.w3.org/2000/svg">
<path d="M150 75C150 116.421 116.421 150 75 150C33.5786 150 0 116.421 0 75C0 33.5786 33.5786 0 75 0C116.421 0 150 33.5786 150 75Z" fill="url(#paint0_radial_27_55)" fill-opacity="0.6"/>
<circle cx="75" cy="75" r="25" fill="white"/>
<path d="M65 83.875C65 83.0462 65.3292 82.2513 65.9153 81.6653C66.5013 81.0792 67.2962 80.75 68.125 80.75H85M65 83.875C65 84.7038 65.3292 85.4987 65.9153 86.0847C66.5013 86.6708 67.2962 87 68.125 87H85V62H68.125C67.2962 62 66.5013 62.3292 65.9153 62.9153C65.3292 63.5013 65 64.2962 65 65.125V83.875Z" stroke="#8CC6FF" stroke-width="4" stroke-linecap="round" stroke-linejoin="round"/>
<defs>
<radialGradient id="paint0_radial_27_55" cx="0" cy="0" r="1" gradientUnits="userSpaceOnUse" gradientTransform="translate(75 75) rotate(90) scale(75)">
<stop stop-color="#8CC6FF"/>
<stop offset="0.870192" stop-color="#E0EFFF" stop-opacity="0"/>
</radialGradient>
</defs>
</svg>
