<svg width="150" height="150" viewBox="0 0 150 150" fill="none" xmlns="http://www.w3.org/2000/svg">
<path d="M150 75C150 116.421 116.421 150 75 150C33.5786 150 0 116.421 0 75C0 33.5786 33.5786 0 75 0C116.421 0 150 33.5786 150 75Z" fill="url(#paint0_radial_27_48)" fill-opacity="0.6"/>
<circle cx="75" cy="75" r="25" fill="white"/>
<path d="M65 78.75C65 78.75 66.25 77.5 70 77.5C73.75 77.5 76.25 80 80 80C83.75 80 85 78.75 85 78.75V63.75C85 63.75 83.75 65 80 65C76.25 65 73.75 62.5 70 62.5C66.25 62.5 65 63.75 65 63.75V78.75ZM65 78.75V87.5" stroke="#8CC6FF" stroke-width="4" stroke-linecap="round" stroke-linejoin="round"/>
<defs>
<radialGradient id="paint0_radial_27_48" cx="0" cy="0" r="1" gradientUnits="userSpaceOnUse" gradientTransform="translate(75 75) rotate(90) scale(75)">
<stop stop-color="#8CC6FF"/>
<stop offset="0.870192" stop-color="#E0EFFF" stop-opacity="0"/>
</radialGradient>
</defs>
</svg>
